<svg width="47" height="47" viewBox="0 0 47 47" fill="none" xmlns="http://www.w3.org/2000/svg">
<g id="fluent:crown-20-filled">
<path id="Vector" d="M20.5322 12.4784L15.5314 18.908C15.3645 19.1228 15.1282 19.2729 14.863 19.3329C14.5977 19.3929 14.3198 19.359 14.0768 19.237L9.08301 16.739C9.38648 16.0745 9.47601 15.3321 9.3392 14.6145C9.2024 13.8969 8.84602 13.2395 8.31936 12.7333C7.79269 12.2271 7.12174 11.8969 6.3993 11.7886C5.67685 11.6803 4.9386 11.7991 4.28661 12.1286C3.63462 12.4581 3.1011 12.982 2.75984 13.6279C2.41857 14.2738 2.28642 15.0098 2.38164 15.7341C2.47686 16.4584 2.79476 17.1352 3.29138 17.671C3.788 18.2067 4.43881 18.575 5.15381 18.7247L9.13001 37.6187C9.26924 38.2788 9.63139 38.8708 10.1556 39.2953C10.6798 39.7198 11.3342 39.951 12.0088 39.9499H34.9965C35.6706 39.9504 36.3244 39.719 36.8482 39.2946C37.3719 38.8701 37.7337 38.2784 37.8729 37.6187L41.8491 18.7247C42.5641 18.575 43.2149 18.2067 43.7115 17.671C44.2081 17.1352 44.526 16.4584 44.6212 15.7341C44.7164 15.0098 44.5843 14.2738 44.243 13.6279C43.9018 12.982 43.3683 12.4581 42.7163 12.1286C42.0643 11.7991 41.326 11.6803 40.6036 11.7886C39.8811 11.8969 39.2102 12.2271 38.6835 12.7333C38.1568 13.2395 37.8005 13.8969 37.6637 14.6145C37.5269 15.3321 37.6164 16.0745 37.9199 16.739L32.9238 19.237C32.6807 19.359 32.4028 19.3929 32.1375 19.3329C31.8723 19.2729 31.636 19.1228 31.4691 18.908L26.4683 12.4761C26.8096 11.9435 27.0012 11.3288 27.0231 10.6966C27.0451 10.0644 26.8965 9.43794 26.5929 8.88295C26.2894 8.32795 25.8421 7.86487 25.2979 7.54227C24.7538 7.21967 24.1328 7.04944 23.5003 7.04944C22.8677 7.04944 22.2467 7.21967 21.7026 7.54227C21.1585 7.86487 20.7112 8.32795 20.4076 8.88295C20.1041 9.43794 19.9555 10.0644 19.9774 10.6966C19.9993 11.3288 20.1909 11.9458 20.5322 12.4784ZM23.5003 32.8999C23.0373 32.8999 22.579 32.8088 22.1513 32.6316C21.7236 32.4545 21.335 32.1948 21.0077 31.8675C20.6804 31.5402 20.4207 31.1516 20.2436 30.7239C20.0664 30.2962 19.9753 29.8379 19.9753 29.3749C19.9753 28.912 20.0664 28.4537 20.2436 28.026C20.4207 27.5983 20.6804 27.2097 21.0077 26.8824C21.335 26.5551 21.7236 26.2954 22.1513 26.1183C22.579 25.9411 23.0373 25.8499 23.5003 25.8499C24.4351 25.8499 25.3317 26.2213 25.9928 26.8824C26.6539 27.5435 27.0253 28.4401 27.0253 29.3749C27.0253 30.3098 26.6539 31.2064 25.9928 31.8675C25.3317 32.5286 24.4351 32.8999 23.5003 32.8999Z" fill="#FBAE43"/>
</g>
</svg>
