<svg width="10" height="14" viewBox="0 0 10 14" fill="none" xmlns="http://www.w3.org/2000/svg">
<path id="Vector" d="M6.81818 12.303C6.81818 12.6387 6.71155 12.9668 6.51176 13.2458C6.31198 13.5249 6.02802 13.7424 5.69579 13.8708C5.36356 13.9993 4.99798 14.0329 4.64529 13.9674C4.2926 13.9019 3.96863 13.7403 3.71435 13.503C3.46007 13.2656 3.28691 12.9633 3.21675 12.6341C3.1466 12.3049 3.1826 11.9637 3.32022 11.6536C3.45783 11.3435 3.69087 11.0785 3.98987 10.8921C4.28887 10.7056 4.6404 10.6061 5 10.6061C5.48221 10.6061 5.94467 10.7848 6.28565 11.1031C6.62662 11.4213 6.81818 11.853 6.81818 12.303ZM5 0C2.24318 0 0 1.90273 0 4.24242V4.66667C0 5.00421 0.143668 5.32794 0.3994 5.56662C0.655131 5.8053 1.00198 5.93939 1.36364 5.93939C1.72529 5.93939 2.07214 5.8053 2.32787 5.56662C2.5836 5.32794 2.72727 5.00421 2.72727 4.66667V4.24242C2.72727 3.30697 3.75 2.54545 5 2.54545C6.25 2.54545 7.27273 3.30697 7.27273 4.24242C7.27273 5.17788 6.25 5.93939 5 5.93939C4.63834 5.93939 4.29149 6.07348 4.03576 6.31217C3.78003 6.55085 3.63636 6.87457 3.63636 7.21212V8.06061C3.63555 8.37505 3.75948 8.67864 3.98427 8.91285C4.20905 9.14707 4.51878 9.29533 4.85373 9.32906C5.18869 9.36279 5.52517 9.27959 5.79831 9.09551C6.07144 8.91142 6.26189 8.63949 6.33295 8.33212C8.44432 7.83576 10 6.19076 10 4.24242C10 1.90273 7.75682 0 5 0Z" fill="white"/>
</svg>
