<svg width="9" height="15" viewBox="0 0 9 15" fill="none" xmlns="http://www.w3.org/2000/svg">
<path id="Vector" d="M8.46556 2.83551C8.71318 2.5826 8.84799 2.24809 8.84158 1.90246C8.83517 1.55683 8.68805 1.22706 8.43121 0.982623C8.17437 0.738187 7.82786 0.598171 7.46469 0.592072C7.10152 0.585974 6.75004 0.71427 6.48429 0.949931L0.409664 6.73117C0.147146 6.98132 -0.000308037 7.32041 -0.000308037 7.67396C-0.000308037 8.02751 0.147146 8.3666 0.409664 8.61675L6.48429 14.398C6.75004 14.6336 7.10152 14.7619 7.46469 14.7558C7.82786 14.7498 8.17437 14.6097 8.43121 14.3653C8.68805 14.1209 8.83517 13.7911 8.84158 13.4455C8.84799 13.0998 8.71318 12.7653 8.46556 12.5124L3.38156 7.67396L8.46556 2.83551Z" fill="white"/>
</svg>
