<svg width="24" height="24" viewBox="0 0 24 24" fill="none" xmlns="http://www.w3.org/2000/svg">
<g id="ph:users-fill">
<path id="Vector" d="M15.4191 18.3403C15.4929 18.4535 15.5348 18.5845 15.5403 18.7194C15.5458 18.8544 15.5147 18.9884 15.4504 19.1072C15.3861 19.226 15.2908 19.3252 15.1748 19.3943C15.0587 19.4635 14.9261 19.5 14.791 19.5H0.959137C0.824039 19.5 0.691454 19.4635 0.57539 19.3943C0.459326 19.3252 0.364092 19.226 0.29975 19.1072C0.235409 18.9884 0.204348 18.8544 0.209851 18.7194C0.215354 18.5845 0.257215 18.4535 0.331012 18.3403C1.38674 16.7153 2.9396 15.4752 4.75789 14.805C3.7527 14.1358 2.98955 13.1609 2.58129 12.0244C2.17303 10.888 2.14135 9.65028 2.49091 8.49441C2.84047 7.33854 3.55273 6.32585 4.52236 5.60609C5.49199 4.88633 6.6675 4.49772 7.87507 4.49772C9.08265 4.49772 10.2582 4.88633 11.2278 5.60609C12.1974 6.32585 12.9097 7.33854 13.2592 8.49441C13.6088 9.65028 13.5771 10.888 13.1689 12.0244C12.7606 13.1609 11.9975 14.1358 10.9923 14.805C12.8106 15.4752 14.3634 16.7153 15.4191 18.3403ZM23.6607 18.3262C22.6047 16.7081 21.0553 15.4733 19.2423 14.805C20.4289 14.0056 21.2664 12.7841 21.5842 11.3891C21.902 9.99402 21.6762 8.5303 20.9528 7.29584C20.2295 6.06138 19.0629 5.14897 17.6905 4.74434C16.3181 4.33971 14.8431 4.47326 13.5657 5.11781C13.5169 5.14303 13.4742 5.17868 13.4406 5.22224C13.4071 5.2658 13.3835 5.31619 13.3716 5.36986C13.3597 5.42353 13.3598 5.47916 13.3718 5.53281C13.3838 5.58646 13.4074 5.63681 13.441 5.68031C14.3909 6.86513 14.9364 8.32297 14.9976 9.84029C15.0588 11.3576 14.6326 12.8547 13.7813 14.1122C13.7263 14.1944 13.706 14.295 13.7248 14.3921C13.7435 14.4892 13.7999 14.5749 13.8816 14.6306C14.9915 15.4053 15.9417 16.3866 16.6801 17.5209C16.9779 17.977 17.0995 18.5258 17.0223 19.065C17.0136 19.1186 17.0166 19.1735 17.0312 19.2258C17.0459 19.2782 17.0717 19.3267 17.1069 19.3681C17.1421 19.4095 17.1859 19.4427 17.2352 19.4655C17.2846 19.4882 17.3382 19.5 17.3926 19.5H23.0457C23.2109 19.5001 23.3714 19.4456 23.5024 19.3451C23.6335 19.2445 23.7277 19.1036 23.7704 18.9441C23.7965 18.8392 23.8002 18.7299 23.7813 18.6235C23.7624 18.517 23.7213 18.4158 23.6607 18.3262Z" fill="black"/>
</g>
</svg>
