<svg width="9" height="15" viewBox="0 0 9 15" fill="none" xmlns="http://www.w3.org/2000/svg">
<path id="Vector" d="M0.376238 2.83551C0.128617 2.5826 -0.00618934 2.24809 0.000218401 1.90246C0.00662614 1.55683 0.153748 1.22706 0.410589 0.982623C0.66743 0.738187 1.01394 0.598171 1.37711 0.592072C1.74028 0.585974 2.09176 0.71427 2.3575 0.949931L8.43213 6.73117C8.69465 6.98132 8.8421 7.32041 8.8421 7.67396C8.8421 8.02751 8.69465 8.3666 8.43213 8.61675L2.3575 14.398C2.09176 14.6336 1.74028 14.7619 1.37711 14.7558C1.01394 14.7498 0.66743 14.6097 0.410589 14.3653C0.153748 14.1209 0.00662614 13.7911 0.000218401 13.4455C-0.00618934 13.0998 0.128617 12.7653 0.376238 12.5124L5.46024 7.67396L0.376238 2.83551Z" fill="white"/>
</svg>
